# xmcd
#
# Track frame offsets:
#	150
#	20384
#	39453
#	55326
#	74271
#	90096
#	104878
#	121501
#	152549
#	167002
#	189917
#	209442
#	240853
#
# Disc length: 3402 seconds
# Revision: 0
# Processed by: cddbd v1.5.2PL0 Copyright (c) Steve Scherf et al.
# Submitted via: dBpowerAMP V12.0
#
DISCID=990d480d
DTITLE=Back Alley John and the Tra La Las - Live at the Duke
DYEAR=2005
DGENRE=Blues
TTITLE0=Good Morning Little School Girl
TTITLE1=The Weeping Willow
TTITLE2=Lake Michigan Blues
TTITLE3=House Rock
TTITLE4=How Long Maybe (Somebody Else Help Me Decide)
TTITLE5=I've Been Your Good Thing
TTITLE6=Stop Now
TTITLE7=That Devil's Place
TTITLE8=Peachy Tree
TTITLE9=Trouble in Mind
TTITLE10=Nobody's Home But Me
TTITLE11=Love in Vain
TTITLE12=Bright Lights, Big City
EXTD=
EXTT0=
EXTT1=
EXTT2=
EXTT3=
EXTT4=
EXTT5=
EXTT6=
EXTT7=
EXTT8=
EXTT9=
EXTT10=
EXTT11=
EXTT12=
PLAYORDER=
